<svg xmlns="http://www.w3.org/2000/svg" width="32" height="32" viewBox="0 0 32 32"><path d="M26.663 7.737h-13.861v-.533c0-1.178-.955-2.133-2.133-2.133h-5.331c-1.178 0-2.132.955-2.132 2.133v17.593c0 1.178.955 2.133 2.132 2.133h21.325c1.178 0 2.133-.955 2.133-2.133v-14.928c0-1.178-.955-2.133-2.133-2.133zm-22.392-.534c0-.588.479-1.066 1.066-1.066h5.331c.588 0 1.066.478 1.066 1.066v1.599h14.928c.588 0 1.066.478 1.066 1.066v1.066h-23.457v-3.732zm22.392 18.66h-21.325c-.588 0-1.066-.479-1.066-1.066v-12.795h23.457v12.795c0 .588-.479 1.066-1.066 1.066z"/></svg>